<?xml version="1.0" encoding="UTF-8" standalone="no"?>
<svg
   id="Layer_2"
   viewBox="0 0 8122.7528 2052.7939"
   version="1.1"
   sodipodi:docname="logo-2026.svg"
   width="8122.7529"
   height="2052.7939"
   inkscape:export-filename="logo-2026.png"
   inkscape:export-xdpi="96"
   inkscape:export-ydpi="96"
   inkscape:version="1.3.2 (091e20e, 2023-11-25, custom)"
   xmlns:inkscape="http://www.inkscape.org/namespaces/inkscape"
   xmlns:sodipodi="http://sodipodi.sourceforge.net/DTD/sodipodi-0.dtd"
   xmlns="http://www.w3.org/2000/svg"
   xmlns:svg="http://www.w3.org/2000/svg">
  <sodipodi:namedview
     id="namedview18"
     pagecolor="#505050"
     bordercolor="#ffffff"
     borderopacity="1"
     inkscape:showpageshadow="0"
     inkscape:pageopacity="0"
     inkscape:pagecheckerboard="1"
     inkscape:deskcolor="#505050"
     showguides="true"
     inkscape:zoom="0.12611639"
     inkscape:cx="3552.2743"
     inkscape:cy="-352.84867"
     inkscape:window-width="2560"
     inkscape:window-height="1369"
     inkscape:window-x="-8"
     inkscape:window-y="-8"
     inkscape:window-maximized="1"
     inkscape:current-layer="Layer_2">
    <sodipodi:guide
       position="-1704.7745,3876.5061"
       orientation="1,0"
       id="guide19"
       inkscape:locked="false" />
    <sodipodi:guide
       position="967.36039,6366.2697"
       orientation="0,-1"
       id="guide20"
       inkscape:locked="false" />
  </sodipodi:namedview>
  <defs
     id="defs1">
    <style
       id="style1">.cls-1{fill:#ee6fbb;}.cls-1,.cls-2,.cls-3{stroke-width:0px;}.cls-2{fill:#051c2c;}.cls-3{fill:#fff;}</style>
  </defs>
  <g
     id="g18"
     transform="matrix(11.30358,0,0,11.30358,11.303889,-0.00201837)">
    <g
       id="g21"
       transform="translate(0.19998779,2.310816)">
      <path
         class="cls-2"
         d="m 403.1926,39.025004 c 0,-14.76 -5.13,-28.32 -13.68,-39.02000047 -17.36,10.96000047 -28.9,30.29000047 -28.9,52.33000047 0,2.14 0.11,4.27 0.33,6.39 -1.9,-0.18 -3.81,-0.18 -5.71,0 0.22,-2.12 0.33,-4.25 0.33,-6.38 v 0 c 0,-22.05 -11.54,-41.38 -28.9,-52.34000047 -8.56,10.70000047 -13.68,24.26000047 -13.68,39.02000047 0,13.02 4.08,25.659996 11.6,36.179996 -3.54,4.4 -5.23,10.15 -4.47,15.89 l 2.13,15.92 c 0.79,5.91 4.98,10.85 10.69,12.59 l 9.43,2.89 v 10.62 c 0,0.12 0.01,0.23 0.02,0.34 -7.46,-2.87 -13.84,-5.42 -13.99,-5.48 -1.2,-0.46 -2.21,-1.34 -2.82,-2.47 l -3.42,-6.27 c -2.52,-4.62 -7.82,-6.86 -12.89,-5.45 l -1.03,0.29 c -5.55,1.55 -9.01,7 -8.06,12.68 l 0.28,1.7 c -2.77,2.38 -4.08,6.19 -3.1,9.95 l 0.11,0.41 c 1.22,4.71 5.79,7.86 10.62,7.33 l 5.4,-0.59 c -1.42,0.82 -2.68,1.95 -3.66,3.38 l -0.61,0.88 c -3.27,4.74 -2.45,11.15 1.92,14.9 l 1.3,1.12 c -0.6,3.6 0.83,7.37 3.98,9.63 l 0.35,0.25 c 1.72,1.23 3.73,1.83 5.74,1.83 2.61,0 5.21,-1.02 7.12,-3 l 6.93,-7.18 c 0.55,-0.57 1.23,-1.02 2.03,-1.33 0.11,-0.04 9.98,-3.97 19.52,-7.59 9.54,3.62 19.42,7.55 19.59,7.62 0.74,0.28 1.41,0.73 1.96,1.3 l 6.93,7.18 c 3.38,3.5 8.9,4 12.86,1.16 l 0.34,-0.25 c 3.16,-2.27 4.59,-6.04 3.99,-9.64 l 1.3,-1.12 c 4.37,-3.76 5.19,-10.16 1.92,-14.9 l -0.61,-0.88 c -0.98,-1.43 -2.24,-2.57 -3.66,-3.38 l 5.4,0.59 c 4.84,0.53 9.4,-2.63 10.62,-7.33 l 0.11,-0.41 c 0.97,-3.76 -0.34,-7.57 -3.1,-9.95 l 0.28,-1.7 c 0.95,-5.68 -2.52,-11.13 -8.06,-12.68 l -1.03,-0.29 c -5.07,-1.42 -10.37,0.82 -12.89,5.45 l -3.42,6.27 c -0.62,1.13 -1.62,2.01 -2.9,2.5 -0.1,0.04 -6.46,2.58 -13.91,5.45 0,-0.11 0.02,-0.23 0.02,-0.34 v -10.63 l 9.43,-2.88 c 5.7,-1.74 9.9,-6.68 10.69,-12.59 l 2.13,-15.92 c 0.77,-5.74 -0.93,-11.49 -4.47,-15.89 7.51,-10.51 11.6,-23.159996 11.6,-36.179996 z"
         id="path1-5"
         style="fill:#051c2c;stroke:#ffffff;stroke-width:3.5;stroke-dasharray:none;stroke-opacity:1" />
      <g
         id="g19"
         transform="translate(-3.6974005,0.00500153)">
        <path
           class="cls-2"
           d="m 406.89,39.02 c 0,-14.76 -5.13,-28.32 -13.68,-39.02 -17.36,10.96 -28.9,30.29 -28.9,52.33 0,2.14 0.11,4.27 0.33,6.39 -1.9,-0.18 -3.81,-0.18 -5.71,0 0.22,-2.12 0.33,-4.25 0.33,-6.38 v 0 c 0,-22.05 -11.54,-41.38 -28.9,-52.34 -8.56,10.7 -13.68,24.26 -13.68,39.02 0,13.02 4.08,25.66 11.6,36.18 -3.54,4.4 -5.23,10.15 -4.47,15.89 l 2.13,15.92 c 0.79,5.91 4.98,10.85 10.69,12.59 l 9.43,2.89 v 10.62 c 0,0.12 0.01,0.23 0.02,0.34 -7.46,-2.87 -13.84,-5.42 -13.99,-5.48 -1.2,-0.46 -2.21,-1.34 -2.82,-2.47 l -3.42,-6.27 c -2.52,-4.62 -7.82,-6.86 -12.89,-5.45 l -1.03,0.29 c -5.55,1.55 -9.01,7 -8.06,12.68 l 0.28,1.7 c -2.77,2.38 -4.08,6.19 -3.1,9.95 l 0.11,0.41 c 1.22,4.71 5.79,7.86 10.62,7.33 l 5.4,-0.59 c -1.42,0.82 -2.68,1.95 -3.66,3.38 l -0.61,0.88 c -3.27,4.74 -2.45,11.15 1.92,14.9 l 1.3,1.12 c -0.6,3.6 0.83,7.37 3.98,9.63 l 0.35,0.25 c 1.72,1.23 3.73,1.83 5.74,1.83 2.61,0 5.21,-1.02 7.12,-3 l 6.93,-7.18 c 0.55,-0.57 1.23,-1.02 2.03,-1.33 0.11,-0.04 9.98,-3.97 19.52,-7.59 9.54,3.62 19.42,7.55 19.59,7.62 0.74,0.28 1.41,0.73 1.96,1.3 l 6.93,7.18 c 3.38,3.5 8.9,4 12.86,1.16 l 0.34,-0.25 c 3.16,-2.27 4.59,-6.04 3.99,-9.64 l 1.3,-1.12 c 4.37,-3.76 5.19,-10.16 1.92,-14.9 l -0.61,-0.88 c -0.98,-1.43 -2.24,-2.57 -3.66,-3.38 l 5.4,0.59 c 4.84,0.53 9.4,-2.63 10.62,-7.33 l 0.11,-0.41 c 0.97,-3.76 -0.34,-7.57 -3.1,-9.95 l 0.28,-1.7 c 0.95,-5.68 -2.52,-11.13 -8.06,-12.68 l -1.03,-0.29 c -5.07,-1.42 -10.37,0.82 -12.89,5.45 l -3.42,6.27 c -0.62,1.13 -1.62,2.01 -2.9,2.5 -0.1,0.04 -6.46,2.58 -13.91,5.45 0,-0.11 0.02,-0.23 0.02,-0.34 v -10.63 l 9.43,-2.88 c 5.7,-1.74 9.9,-6.68 10.69,-12.59 l 2.13,-15.92 c 0.77,-5.74 -0.93,-11.49 -4.47,-15.89 7.51,-10.51 11.6,-23.16 11.6,-36.18 z"
           id="path1"
           style="stroke:none;stroke-width:1.5;stroke-dasharray:none;stroke-opacity:1" />
        <path
           class="cls-3"
           d="m 414.11,132.22 c -0.76,-0.23 -1.23,-0.99 -1.1,-1.77 l 0.78,-4.69 c 0.44,-2.64 -1.18,-5.19 -3.76,-5.91 L 409,119.56 c -2.35,-0.66 -4.84,0.4 -6.01,2.54 l -3.42,6.27 c -1.3,2.38 -3.41,4.23 -5.94,5.2 0,0 -15.78,6.3 -27.02,10.37 -1.54,0.56 -3.17,1.13 -4.83,1.72 -1.67,-0.58 -3.3,-1.16 -4.83,-1.72 -11.24,-4.07 -27.02,-10.37 -27.02,-10.37 -2.54,-0.97 -4.64,-2.82 -5.94,-5.2 l -3.42,-6.27 c -1.17,-2.14 -3.66,-3.2 -6.01,-2.54 l -1.03,0.29 c -2.58,0.72 -4.2,3.27 -3.76,5.91 l 0.78,4.69 c 0.13,0.78 -0.34,1.54 -1.1,1.77 -1.98,0.6 -3.14,2.66 -2.62,4.67 l 0.11,0.41 c 0.48,1.86 2.26,3.08 4.16,2.88 l 9.92,-1.08 c 1.66,-0.18 3.34,0 4.93,0.54 0,0 15.67,5.12 26.86,9.11 -7.39,2.5 -13.6,4.52 -13.6,4.52 -2.57,0.88 -5.37,0.81 -7.9,-0.19 l -6.64,-2.63 c -2.27,-0.9 -4.86,-0.11 -6.24,1.9 l -0.61,0.88 c -1.52,2.2 -1.13,5.2 0.9,6.95 l 3.61,3.1 c 0.6,0.52 0.73,1.4 0.29,2.07 -1.14,1.73 -0.7,4.05 0.98,5.26 l 0.35,0.25 c 1.56,1.12 3.71,0.93 5.04,-0.46 l 6.93,-7.18 c 1.16,-1.2 2.57,-2.14 4.13,-2.74 0,0 11.43,-4.55 21.73,-8.43 10.3,3.88 21.73,8.43 21.73,8.43 1.56,0.6 2.97,1.53 4.13,2.74 l 6.93,7.18 c 1.33,1.38 3.48,1.58 5.04,0.46 l 0.35,-0.25 c 1.68,-1.21 2.12,-3.53 0.98,-5.26 -0.44,-0.66 -0.31,-1.55 0.29,-2.07 l 3.61,-3.1 c 2.03,-1.75 2.42,-4.74 0.9,-6.95 l -0.61,-0.88 c -1.39,-2.01 -3.97,-2.79 -6.24,-1.9 l -6.64,2.63 c -2.53,1 -5.32,1.07 -7.9,0.19 0,0 -6.21,-2.02 -13.6,-4.52 11.19,-3.98 26.86,-9.11 26.86,-9.11 1.58,-0.54 3.26,-0.72 4.93,-0.54 l 9.92,1.08 c 1.91,0.21 3.68,-1.02 4.16,-2.88 l 0.11,-0.41 c 0.52,-2.01 -0.63,-4.07 -2.62,-4.67 z"
           id="path2" />
        <path
           class="cls-3"
           d="m 352.05,125.13 v 7.96 c 0,1.04 0.75,1.94 1.77,2.12 l 6.9,1.23 v -11.32 h -8.67 z"
           id="path3" />
        <path
           class="cls-3"
           d="m 371.52,125.13 v 7.96 c 0,1.04 -0.75,1.94 -1.77,2.12 l -6.9,1.23 v -11.32 c 0,0 8.67,0 8.67,0 z"
           id="path4" />
        <path
           class="cls-3"
           d="m 387.17,75.83 c 8.55,-9.87 13.73,-22.73 13.73,-36.81 0,-11.38 -3.39,-21.97 -9.2,-30.83 -13.02,10.31 -21.38,26.24 -21.38,44.14 0,5.04 0.66,9.91 1.91,14.56 -6.61,-3.06 -14.25,-3.06 -20.87,0 1.24,-4.64 1.91,-9.52 1.91,-14.56 0,-17.9 -8.36,-33.83 -21.38,-44.14 -5.81,8.86 -9.2,19.44 -9.2,30.83 0,14.08 5.18,26.94 13.73,36.81 -4.81,3.13 -7.41,8.75 -6.65,14.46 l 2.13,15.92 c 0.48,3.6 3.02,6.58 6.49,7.64 l 9.61,2.93 c 1.41,0.43 2.47,1.61 2.75,3.07 l 0.24,1.28 c 0.21,1.1 1.16,1.89 2.28,1.89 h 17.07 c 1.11,0 2.07,-0.79 2.28,-1.89 l 0.24,-1.28 c 0.27,-1.45 1.33,-2.64 2.75,-3.07 l 9.61,-2.93 c 3.47,-1.06 6.01,-4.04 6.49,-7.64 l 2.13,-15.92 C 394.6,84.58 392,78.95 387.19,75.83 Z m -38.97,32.38 c -5.61,0 -10.16,-4.08 -10.16,-9.12 0,-5.04 4.55,-9.12 10.16,-9.12 5.61,0 10.16,4.08 10.16,9.12 0,5.04 -4.55,9.12 -10.16,9.12 z m 15.98,9.01 h -4.8 c -2.38,0 -3.74,-2.71 -2.31,-4.62 l 3.94,-5.27 c 0.38,-0.51 1.15,-0.51 1.54,0 l 3.94,5.27 c 1.43,1.91 0.07,4.62 -2.31,4.62 z m 11.19,-9.01 c -5.61,0 -10.16,-4.08 -10.16,-9.12 0,-5.04 4.55,-9.12 10.16,-9.12 5.61,0 10.16,4.08 10.16,9.12 0,5.04 -4.55,9.12 -10.16,9.12 z"
           id="path5" />
        <path
           class="cls-1"
           d="m 389.85,19.53 c 2.64,6.12 4.02,12.73 4.02,19.49 0,12.27 -4.48,23.84 -12.52,32.8 -2.64,-6.12 -4.02,-12.73 -4.02,-19.49 0,-12.27 4.48,-23.84 12.52,-32.8 z"
           id="path6" />
        <path
           class="cls-1"
           d="m 329.7,39.02 c 0,-6.76 1.37,-13.37 4.02,-19.49 8.03,8.96 12.52,20.54 12.52,32.8 0,6.76 -1.37,13.37 -4.02,19.49 -8.03,-8.96 -12.52,-20.54 -12.52,-32.8 z"
           id="path7" />
      </g>
      <g
         id="g20"
         transform="translate(0,19.316598)">
        <g
           id="Layer_2-2"
           style="fill:#051c2c;fill-opacity:1;stroke:#ffffff;stroke-width:2.4;stroke-linejoin:round;stroke-dasharray:none;stroke-opacity:1"
           transform="translate(0,-12.975824)">
          <g
             id="Layer_1-2"
             style="fill:#051c2c;fill-opacity:1;stroke:#ffffff;stroke-width:2.4;stroke-linejoin:round;stroke-dasharray:none;stroke-opacity:1">
            <path
               class="cls-2"
               d="M 30.47,65.62 H 0 v 2.85 l 7.77,2.59 v 49.56 L 0,123.21 v 2.85 h 27.11 v -2.85 L 16.75,120.62 V 70.03 h 9.85 c 7.67,0 13.12,5.38 13.12,12.86 0,9.16 -7.88,14.51 -18.09,15.56 v 1.88 h 6.98 c 12.79,0 21.3,-8.36 21.3,-18.31 0,-8.78 -6.82,-16.4 -19.43,-16.4 z"
               id="path8"
               style="fill:#051c2c;fill-opacity:1;stroke:#ffffff;stroke-width:2.4;stroke-linejoin:round;stroke-dasharray:none;stroke-opacity:1" />
            <path
               class="cls-2"
               d="m 224.05,95.93 c 0,-3.22 -0.66,-5.94 -1.98,-8.16 -1.24,-2.13 -3.07,-3.86 -5.27,-4.97 -2.21,-1.09 -4.64,-1.64 -7.09,-1.62 -2.96,0 -5.88,0.73 -8.51,2.12 -2.72,1.4 -5.02,3.5 -6.67,6.07 v -26.6 l -16.66,4.14 v 2.76 l 8.46,2.33 v 48.78 l -7.43,2.51 v 2.76 h 22.62 v -2.76 l -6.99,-2.51 V 93.24 c 1.5,-1.76 3.36,-3.19 5.46,-4.19 1.87,-0.91 3.92,-1.4 6,-1.43 2.65,-0.09 5.21,0.93 7.08,2.81 1.85,1.87 2.78,4.65 2.78,8.33 v 21.99 l -7,2.51 v 2.76 h 22.62 v -2.76 l -7.43,-2.51 V 95.91 Z"
               id="path9"
               style="fill:#051c2c;fill-opacity:1;stroke:#ffffff;stroke-width:2.4;stroke-linejoin:round;stroke-dasharray:none;stroke-opacity:1" />
            <path
               class="cls-2"
               d="m 266.48,84.05 c -3.46,-1.97 -7.4,-2.96 -11.38,-2.87 -4.02,-0.08 -7.98,0.92 -11.48,2.89 -3.34,1.92 -6.05,4.76 -7.81,8.18 -1.91,3.69 -2.87,7.79 -2.81,11.94 -0.07,4.08 0.84,8.12 2.68,11.76 1.7,3.36 4.32,6.18 7.55,8.11 3.25,1.96 7.07,2.94 11.44,2.94 4.02,0.08 7.99,-0.94 11.48,-2.94 3.32,-1.93 6.01,-4.77 7.77,-8.18 1.9,-3.72 2.86,-7.85 2.79,-12.02 0.07,-4.08 -0.83,-8.11 -2.63,-11.76 -1.69,-3.37 -4.33,-6.17 -7.6,-8.05 z m -1.97,34.47 c -1.96,3.25 -4.81,4.88 -8.55,4.88 -2.78,0.04 -5.46,-1.05 -7.43,-3.02 -2.17,-2.18 -3.77,-4.87 -4.66,-7.82 -1.06,-3.37 -1.57,-6.88 -1.53,-10.4 0,-5.06 0.98,-9.22 2.94,-12.47 1.96,-3.25 4.8,-4.89 8.53,-4.92 2.76,-0.04 5.42,1.03 7.38,2.98 2.16,2.19 3.76,4.87 4.66,7.81 1.08,3.35 1.62,6.85 1.6,10.36 0,5.14 -0.98,9.34 -2.94,12.6 z"
               id="path10"
               style="fill:#051c2c;fill-opacity:1;stroke:#ffffff;stroke-width:2.4;stroke-linejoin:round;stroke-dasharray:none;stroke-opacity:1" />
            <path
               class="cls-2"
               d="m 490.12,96.4 c -2.79,-1.59 -6.23,-2.58 -10.32,-2.98 4.84,-0.91 8.57,-2.78 11.19,-5.59 2.62,-2.81 3.93,-5.9 3.93,-9.28 -0.02,-2.26 -0.7,-4.46 -1.96,-6.33 -1.42,-2.09 -3.38,-3.74 -5.68,-4.79 -2.51,-1.21 -5.54,-1.82 -9.11,-1.82 h -29.96 v 2.85 l 7.77,2.59 v 49.56 l -7.77,2.59 v 2.85 h 29.87 c 3.76,0.08 7.49,-0.73 10.88,-2.37 2.87,-1.38 5.31,-3.52 7.06,-6.18 1.57,-2.39 2.41,-5.18 2.42,-8.03 0,-2.58 -0.72,-5.11 -2.08,-7.3 -1.55,-2.43 -3.7,-4.41 -6.24,-5.77 z M 464.95,70.02 h 7.16 c 2.43,-0.07 4.84,0.45 7.03,1.51 1.8,0.89 3.31,2.27 4.36,3.97 0.97,1.6 1.47,3.44 1.46,5.31 0,1.88 -0.5,3.73 -1.46,5.35 -1.05,1.74 -2.56,3.15 -4.36,4.09 -2.14,1.12 -4.54,1.67 -6.95,1.6 h -7.24 z m 20.03,48.27 c -2.24,2.24 -5.43,3.36 -9.58,3.37 H 464.95 V 96.28 h 7.77 c 2.95,-0.07 5.87,0.63 8.46,2.05 2.22,1.22 4.07,3.03 5.35,5.22 1.18,2.02 1.81,4.31 1.82,6.65 0.04,3.05 -1.18,5.98 -3.37,8.1 z"
               id="path11"
               style="fill:#051c2c;fill-opacity:1;stroke:#ffffff;stroke-width:2.4;stroke-linejoin:round;stroke-dasharray:none;stroke-opacity:1" />
            <path
               class="cls-2"
               d="m 544.88,81.19 -16.23,3.95 v 2.7 l 8.12,2.25 v 24.78 c -1.55,1.75 -3.43,3.19 -5.53,4.23 -1.85,0.94 -3.88,1.44 -5.95,1.47 -2.82,0 -5.03,-0.96 -6.61,-2.89 -1.58,-1.93 -2.37,-4.76 -2.37,-8.51 V 81.2 l -16.66,4.06 v 2.68 l 8.46,2.33 v 21.99 c 0,4.72 1.27,8.36 3.8,10.92 2.53,2.56 5.76,3.84 9.67,3.84 3.07,-0.01 6.09,-0.82 8.76,-2.35 2.81,-1.57 5.17,-3.83 6.86,-6.56 v 9.24 l 16.15,-4.06 v -2.68 l -8.46,-2.41 v -37 z"
               id="path12"
               style="fill:#051c2c;fill-opacity:1;stroke:#ffffff;stroke-width:2.4;stroke-linejoin:round;stroke-dasharray:none;stroke-opacity:1" />
            <path
               class="cls-2"
               d="m 602.75,95.93 c 0,-3.22 -0.66,-5.94 -1.99,-8.16 -1.24,-2.13 -3.06,-3.86 -5.26,-4.97 -2.2,-1.09 -4.63,-1.64 -7.08,-1.62 -3.1,0 -6.15,0.79 -8.85,2.29 -2.8,1.53 -5.14,3.78 -6.77,6.52 v -8.81 l -16.23,3.97 v 2.68 l 8.46,2.42 v 30.56 l -7.42,2.51 v 2.76 h 22.62 v -2.76 l -6.97,-2.53 V 93.25 c 1.51,-1.77 3.38,-3.2 5.48,-4.19 1.87,-0.91 3.92,-1.4 6,-1.43 2.65,-0.09 5.21,0.93 7.08,2.81 1.84,1.87 2.76,4.65 2.76,8.33 v 21.99 l -7,2.53 v 2.76 h 22.62 v -2.76 l -7.42,-2.51 -0.02,-24.86 z"
               id="path13"
               style="fill:#051c2c;fill-opacity:1;stroke:#ffffff;stroke-width:2.4;stroke-linejoin:round;stroke-dasharray:none;stroke-opacity:1" />
            <path
               class="cls-2"
               d="m 644.69,123.3 v 2.76 h 22.62 v -2.76 l -7.43,-2.51 V 95.93 c 0,-3.22 -0.66,-5.94 -1.98,-8.16 -1.24,-2.13 -3.06,-3.86 -5.26,-4.97 -2.2,-1.09 -4.63,-1.64 -7.08,-1.62 -3.1,0 -6.14,0.79 -8.85,2.29 -2.8,1.53 -5.14,3.78 -6.77,6.52 v -8.81 l -16.23,3.97 v 2.68 l 8.46,2.42 v 30.56 l -7.42,2.51 v 2.76 h 22.62 v -2.76 l -6.99,-2.51 V 93.25 c 1.51,-1.77 3.38,-3.2 5.48,-4.19 1.87,-0.91 3.92,-1.4 6,-1.43 2.66,-0.1 5.23,0.92 7.1,2.81 1.84,1.87 2.76,4.65 2.76,8.33 v 21.99 l -7.02,2.53 z"
               id="path14"
               style="fill:#051c2c;fill-opacity:1;stroke:#ffffff;stroke-width:2.4;stroke-linejoin:round;stroke-dasharray:none;stroke-opacity:1" />
            <path
               class="cls-2"
               d="m 84.05,105.59 c -2.47,-1.9 -5.23,-3.39 -8.18,-4.4 l -4.15,-1.47 c -2.47,-0.8 -4.81,-1.95 -6.95,-3.41 -1.66,-1.17 -2.62,-3.09 -2.56,-5.11 -0.06,-1.95 0.83,-3.82 2.38,-5.01 1.58,-1.26 3.69,-1.89 6.34,-1.9 v 0 c 0.83,0 1.66,0.07 2.48,0.22 v 0 l 6.51,8.33 h 1.92 l 4.82,-6.04 c -2.31,-1.81 -4.9,-3.23 -7.67,-4.19 -2.73,-0.95 -5.6,-1.43 -8.49,-1.43 -4.55,0 -8.36,1.08 -11.44,3.24 -3.08,2.16 -4.62,5.25 -4.6,9.28 -0.07,2.22 0.54,4.41 1.77,6.26 1.15,1.67 2.67,3.04 4.45,4.02 2.17,1.16 4.42,2.16 6.73,3.02 l 3.89,1.47 c 2.34,0.81 4.54,1.96 6.55,3.41 1.49,1.18 2.24,2.87 2.24,5.05 0.01,1.88 -0.81,3.66 -2.24,4.87 -1.5,1.36 -3.68,2.05 -6.56,2.05 -1.19,0.01 -2.38,-0.14 -3.53,-0.46 l -7.05,-9.03 h -1.8 l -5.15,6.47 c 2.42,2.07 5.22,3.66 8.24,4.66 2.99,1.02 6.13,1.53 9.28,1.53 4.77,0 8.66,-1.22 11.65,-3.67 2.92,-2.29 4.59,-5.83 4.49,-9.54 0,-3.68 -1.12,-6.42 -3.37,-8.22 z"
               id="path15"
               style="fill:#051c2c;fill-opacity:1;stroke:#ffffff;stroke-width:2.4;stroke-linejoin:round;stroke-dasharray:none;stroke-opacity:1" />
            <path
               class="cls-2"
               d="m 122.64,81.94 v 2.68 l 7.78,2.24 -11.61,27.97 -12.58,-27.96 h 0.03 l 8.03,-2.25 v -2.76 l -23.56,0.09 v 2.76 l 6.14,1.72 17.82,37.78 c -0.45,1.35 -1.05,2.64 -1.8,3.84 l -0.07,0.12 v 0 c -0.65,1.1 -1.45,2.1 -2.37,2.99 -2.12,2.18 -5.03,3.4 -8.07,3.4 -4.48,0 -7.41,-3.85 -7.41,-3.85 h -2.41 l -2.34,7.26 c 3.8,1.84 7.31,2.76 10.53,2.76 3.48,0.05 6.88,-1.06 9.67,-3.15 2.82,-2.1 5.12,-5.17 6.9,-9.21 l 18.16,-41.53 6.14,-2.25 v -2.65 h -19 z"
               id="path16"
               style="fill:#051c2c;fill-opacity:1;stroke:#ffffff;stroke-width:2.4;stroke-linejoin:round;stroke-dasharray:none;stroke-opacity:1" />
            <path
               class="cls-2"
               d="m 697.15,81.94 v 2.68 l 7.78,2.24 -11.61,27.97 -12.58,-27.96 h 0.03 l 8.03,-2.25 v -2.76 l -23.55,0.09 v 2.76 l 6.14,1.72 17.82,37.78 v 0 0.06 0 c -0.45,1.32 -1.04,2.58 -1.77,3.76 v 0 l -0.08,0.12 v 0 c -0.63,1.05 -1.38,2.01 -2.25,2.87 -0.27,0.27 -0.56,0.54 -0.86,0.8 v 0 c -0.25,0.21 -0.51,0.42 -0.79,0.62 h -0.03 l -0.42,0.29 v 0 l -0.42,0.26 -0.05,0.03 -0.44,0.25 h -0.04 l -0.42,0.21 -0.06,0.03 c -0.15,0.07 -0.31,0.14 -0.47,0.2 l -0.07,0.03 -0.44,0.16 h -0.06 l -0.51,0.15 -0.1,0.03 c -0.15,0.05 -0.31,0.08 -0.47,0.12 h -0.06 l -0.51,0.1 h -0.12 l -0.51,0.07 h -0.04 c -0.18,0 -0.37,0.04 -0.56,0.05 h -0.72 c -4.48,0 -7.41,-3.85 -7.41,-3.85 h -2.36 l -2.33,7.16 -0.04,0.11 c 3.8,1.84 7.31,2.76 10.53,2.76 3.48,0.05 6.88,-1.06 9.67,-3.15 2.82,-2.1 5.12,-5.17 6.9,-9.21 l 18.16,-41.53 6.14,-2.25 v -2.49 h -19.06 z"
               id="path17"
               style="fill:#051c2c;fill-opacity:1;stroke:#ffffff;stroke-width:2.4;stroke-linejoin:round;stroke-dasharray:none;stroke-opacity:1" />
            <path
               class="cls-2"
               d="m 168.88,117.34 c -5.02,2.41 -10.92,2.15 -15.71,-0.69 -2.48,-1.53 -4.49,-3.71 -5.83,-6.31 -1.41,-2.75 -2.13,-5.8 -2.09,-8.89 -0.06,-3.02 0.61,-6.01 1.94,-8.72 1.21,-2.43 3.02,-4.51 5.27,-6.04 2.13,-1.47 4.63,-2.34 7.21,-2.51 h 0.42 c 0.8,0 1.6,0.08 2.39,0.24 v 0 l 7.32,8.4 h 2.12 l 4.6,-5.95 c -5.13,-3.78 -10.6,-5.68 -16.41,-5.68 -4.07,-0.08 -8.08,0.98 -11.57,3.07 -3.31,2.01 -6,4.89 -7.77,8.33 -1.87,3.64 -2.82,7.68 -2.76,11.76 -0.05,4 0.87,7.96 2.68,11.53 1.66,3.34 4.2,6.17 7.34,8.18 3.12,1.99 6.75,3.02 10.44,2.98 3.9,0.08 7.72,-1.12 10.88,-3.41 3.11,-2.27 5.67,-5.54 7.67,-9.8 l -2.07,-1.47 c -1.67,2.05 -3.74,3.74 -6.08,4.98 z"
               id="path18"
               style="fill:#051c2c;fill-opacity:1;stroke:#ffffff;stroke-width:2.4;stroke-linejoin:round;stroke-dasharray:none;stroke-opacity:1" />
          </g>
        </g>
        <g
           id="Layer_2-2-7"
           style="fill:#051c2c;fill-opacity:1;stroke:none;stroke-width:0.9;stroke-linejoin:round;stroke-dasharray:none;stroke-opacity:1"
           transform="translate(6.1035156e-6,-12.975808)">
          <g
             id="Layer_1-2-6"
             style="fill:#051c2c;fill-opacity:1;stroke:none;stroke-width:0.9;stroke-linejoin:round;stroke-dasharray:none;stroke-opacity:1">
            <path
               class="cls-2"
               d="M 30.47,65.62 H 0 v 2.85 l 7.77,2.59 v 49.56 L 0,123.21 v 2.85 h 27.11 v -2.85 L 16.75,120.62 V 70.03 h 9.85 c 7.67,0 13.12,5.38 13.12,12.86 0,9.16 -7.88,14.51 -18.09,15.56 v 1.88 h 6.98 c 12.79,0 21.3,-8.36 21.3,-18.31 0,-8.78 -6.82,-16.4 -19.43,-16.4 z"
               id="path8-3"
               style="fill:#051c2c;fill-opacity:1;stroke:none;stroke-width:0.9;stroke-linejoin:round;stroke-dasharray:none;stroke-opacity:1" />
            <path
               class="cls-2"
               d="m 224.05,95.93 c 0,-3.22 -0.66,-5.94 -1.98,-8.16 -1.24,-2.13 -3.07,-3.86 -5.27,-4.97 -2.21,-1.09 -4.64,-1.64 -7.09,-1.62 -2.96,0 -5.88,0.73 -8.51,2.12 -2.72,1.4 -5.02,3.5 -6.67,6.07 v -26.6 l -16.66,4.14 v 2.76 l 8.46,2.33 v 48.78 l -7.43,2.51 v 2.76 h 22.62 v -2.76 l -6.99,-2.51 V 93.24 c 1.5,-1.76 3.36,-3.19 5.46,-4.19 1.87,-0.91 3.92,-1.4 6,-1.43 2.65,-0.09 5.21,0.93 7.08,2.81 1.85,1.87 2.78,4.65 2.78,8.33 v 21.99 l -7,2.51 v 2.76 h 22.62 v -2.76 l -7.43,-2.51 V 95.91 Z"
               id="path9-9"
               style="fill:#051c2c;fill-opacity:1;stroke:none;stroke-width:0.9;stroke-linejoin:round;stroke-dasharray:none;stroke-opacity:1" />
            <path
               class="cls-2"
               d="m 266.48,84.05 c -3.46,-1.97 -7.4,-2.96 -11.38,-2.87 -4.02,-0.08 -7.98,0.92 -11.48,2.89 -3.34,1.92 -6.05,4.76 -7.81,8.18 -1.91,3.69 -2.87,7.79 -2.81,11.94 -0.07,4.08 0.84,8.12 2.68,11.76 1.7,3.36 4.32,6.18 7.55,8.11 3.25,1.96 7.07,2.94 11.44,2.94 4.02,0.08 7.99,-0.94 11.48,-2.94 3.32,-1.93 6.01,-4.77 7.77,-8.18 1.9,-3.72 2.86,-7.85 2.79,-12.02 0.07,-4.08 -0.83,-8.11 -2.63,-11.76 -1.69,-3.37 -4.33,-6.17 -7.6,-8.05 z m -1.97,34.47 c -1.96,3.25 -4.81,4.88 -8.55,4.88 -2.78,0.04 -5.46,-1.05 -7.43,-3.02 -2.17,-2.18 -3.77,-4.87 -4.66,-7.82 -1.06,-3.37 -1.57,-6.88 -1.53,-10.4 0,-5.06 0.98,-9.22 2.94,-12.47 1.96,-3.25 4.8,-4.89 8.53,-4.92 2.76,-0.04 5.42,1.03 7.38,2.98 2.16,2.19 3.76,4.87 4.66,7.81 1.08,3.35 1.62,6.85 1.6,10.36 0,5.14 -0.98,9.34 -2.94,12.6 z"
               id="path10-7"
               style="fill:#051c2c;fill-opacity:1;stroke:none;stroke-width:0.9;stroke-linejoin:round;stroke-dasharray:none;stroke-opacity:1" />
            <path
               class="cls-2"
               d="m 490.12,96.4 c -2.79,-1.59 -6.23,-2.58 -10.32,-2.98 4.84,-0.91 8.57,-2.78 11.19,-5.59 2.62,-2.81 3.93,-5.9 3.93,-9.28 -0.02,-2.26 -0.7,-4.46 -1.96,-6.33 -1.42,-2.09 -3.38,-3.74 -5.68,-4.79 -2.51,-1.21 -5.54,-1.82 -9.11,-1.82 h -29.96 v 2.85 l 7.77,2.59 v 49.56 l -7.77,2.59 v 2.85 h 29.87 c 3.76,0.08 7.49,-0.73 10.88,-2.37 2.87,-1.38 5.31,-3.52 7.06,-6.18 1.57,-2.39 2.41,-5.18 2.42,-8.03 0,-2.58 -0.72,-5.11 -2.08,-7.3 -1.55,-2.43 -3.7,-4.41 -6.24,-5.77 z M 464.95,70.02 h 7.16 c 2.43,-0.07 4.84,0.45 7.03,1.51 1.8,0.89 3.31,2.27 4.36,3.97 0.97,1.6 1.47,3.44 1.46,5.31 0,1.88 -0.5,3.73 -1.46,5.35 -1.05,1.74 -2.56,3.15 -4.36,4.09 -2.14,1.12 -4.54,1.67 -6.95,1.6 h -7.24 z m 20.03,48.27 c -2.24,2.24 -5.43,3.36 -9.58,3.37 H 464.95 V 96.28 h 7.77 c 2.95,-0.07 5.87,0.63 8.46,2.05 2.22,1.22 4.07,3.03 5.35,5.22 1.18,2.02 1.81,4.31 1.82,6.65 0.04,3.05 -1.18,5.98 -3.37,8.1 z"
               id="path11-1"
               style="fill:#051c2c;fill-opacity:1;stroke:none;stroke-width:0.9;stroke-linejoin:round;stroke-dasharray:none;stroke-opacity:1" />
            <path
               class="cls-2"
               d="m 544.88,81.19 -16.23,3.95 v 2.7 l 8.12,2.25 v 24.78 c -1.55,1.75 -3.43,3.19 -5.53,4.23 -1.85,0.94 -3.88,1.44 -5.95,1.47 -2.82,0 -5.03,-0.96 -6.61,-2.89 -1.58,-1.93 -2.37,-4.76 -2.37,-8.51 V 81.2 l -16.66,4.06 v 2.68 l 8.46,2.33 v 21.99 c 0,4.72 1.27,8.36 3.8,10.92 2.53,2.56 5.76,3.84 9.67,3.84 3.07,-0.01 6.09,-0.82 8.76,-2.35 2.81,-1.57 5.17,-3.83 6.86,-6.56 v 9.24 l 16.15,-4.06 v -2.68 l -8.46,-2.41 v -37 z"
               id="path12-9"
               style="fill:#051c2c;fill-opacity:1;stroke:none;stroke-width:0.9;stroke-linejoin:round;stroke-dasharray:none;stroke-opacity:1" />
            <path
               class="cls-2"
               d="m 602.75,95.93 c 0,-3.22 -0.66,-5.94 -1.99,-8.16 -1.24,-2.13 -3.06,-3.86 -5.26,-4.97 -2.2,-1.09 -4.63,-1.64 -7.08,-1.62 -3.1,0 -6.15,0.79 -8.85,2.29 -2.8,1.53 -5.14,3.78 -6.77,6.52 v -8.81 l -16.23,3.97 v 2.68 l 8.46,2.42 v 30.56 l -7.42,2.51 v 2.76 h 22.62 v -2.76 l -6.97,-2.53 V 93.25 c 1.51,-1.77 3.38,-3.2 5.48,-4.19 1.87,-0.91 3.92,-1.4 6,-1.43 2.65,-0.09 5.21,0.93 7.08,2.81 1.84,1.87 2.76,4.65 2.76,8.33 v 21.99 l -7,2.53 v 2.76 h 22.62 v -2.76 l -7.42,-2.51 -0.02,-24.86 z"
               id="path13-9"
               style="fill:#051c2c;fill-opacity:1;stroke:none;stroke-width:0.9;stroke-linejoin:round;stroke-dasharray:none;stroke-opacity:1" />
            <path
               class="cls-2"
               d="m 644.69,123.3 v 2.76 h 22.62 v -2.76 l -7.43,-2.51 V 95.93 c 0,-3.22 -0.66,-5.94 -1.98,-8.16 -1.24,-2.13 -3.06,-3.86 -5.26,-4.97 -2.2,-1.09 -4.63,-1.64 -7.08,-1.62 -3.1,0 -6.14,0.79 -8.85,2.29 -2.8,1.53 -5.14,3.78 -6.77,6.52 v -8.81 l -16.23,3.97 v 2.68 l 8.46,2.42 v 30.56 l -7.42,2.51 v 2.76 h 22.62 v -2.76 l -6.99,-2.51 V 93.25 c 1.51,-1.77 3.38,-3.2 5.48,-4.19 1.87,-0.91 3.92,-1.4 6,-1.43 2.66,-0.1 5.23,0.92 7.1,2.81 1.84,1.87 2.76,4.65 2.76,8.33 v 21.99 l -7.02,2.53 z"
               id="path14-9"
               style="fill:#051c2c;fill-opacity:1;stroke:none;stroke-width:0.9;stroke-linejoin:round;stroke-dasharray:none;stroke-opacity:1" />
            <path
               class="cls-2"
               d="m 84.05,105.59 c -2.47,-1.9 -5.23,-3.39 -8.18,-4.4 l -4.15,-1.47 c -2.47,-0.8 -4.81,-1.95 -6.95,-3.41 -1.66,-1.17 -2.62,-3.09 -2.56,-5.11 -0.06,-1.95 0.83,-3.82 2.38,-5.01 1.58,-1.26 3.69,-1.89 6.34,-1.9 v 0 c 0.83,0 1.66,0.07 2.48,0.22 v 0 l 6.51,8.33 h 1.92 l 4.82,-6.04 c -2.31,-1.81 -4.9,-3.23 -7.67,-4.19 -2.73,-0.95 -5.6,-1.43 -8.49,-1.43 -4.55,0 -8.36,1.08 -11.44,3.24 -3.08,2.16 -4.62,5.25 -4.6,9.28 -0.07,2.22 0.54,4.41 1.77,6.26 1.15,1.67 2.67,3.04 4.45,4.02 2.17,1.16 4.42,2.16 6.73,3.02 l 3.89,1.47 c 2.34,0.81 4.54,1.96 6.55,3.41 1.49,1.18 2.24,2.87 2.24,5.05 0.01,1.88 -0.81,3.66 -2.24,4.87 -1.5,1.36 -3.68,2.05 -6.56,2.05 -1.19,0.01 -2.38,-0.14 -3.53,-0.46 l -7.05,-9.03 h -1.8 l -5.15,6.47 c 2.42,2.07 5.22,3.66 8.24,4.66 2.99,1.02 6.13,1.53 9.28,1.53 4.77,0 8.66,-1.22 11.65,-3.67 2.92,-2.29 4.59,-5.83 4.49,-9.54 0,-3.68 -1.12,-6.42 -3.37,-8.22 z"
               id="path15-7"
               style="fill:#051c2c;fill-opacity:1;stroke:none;stroke-width:0.9;stroke-linejoin:round;stroke-dasharray:none;stroke-opacity:1" />
            <path
               class="cls-2"
               d="m 122.64,81.94 v 2.68 l 7.78,2.24 -11.61,27.97 -12.58,-27.96 h 0.03 l 8.03,-2.25 v -2.76 l -23.56,0.09 v 2.76 l 6.14,1.72 17.82,37.78 c -0.45,1.35 -1.05,2.64 -1.8,3.84 l -0.07,0.12 v 0 c -0.65,1.1 -1.45,2.1 -2.37,2.99 -2.12,2.18 -5.03,3.4 -8.07,3.4 -4.48,0 -7.41,-3.85 -7.41,-3.85 h -2.41 l -2.34,7.26 c 3.8,1.84 7.31,2.76 10.53,2.76 3.48,0.05 6.88,-1.06 9.67,-3.15 2.82,-2.1 5.12,-5.17 6.9,-9.21 l 18.16,-41.53 6.14,-2.25 v -2.65 h -19 z"
               id="path16-3"
               style="fill:#051c2c;fill-opacity:1;stroke:none;stroke-width:0.9;stroke-linejoin:round;stroke-dasharray:none;stroke-opacity:1" />
            <path
               class="cls-2"
               d="m 697.15,81.94 v 2.68 l 7.78,2.24 -11.61,27.97 -12.58,-27.96 h 0.03 l 8.03,-2.25 v -2.76 l -23.55,0.09 v 2.76 l 6.14,1.72 17.82,37.78 v 0 0.06 0 c -0.45,1.32 -1.04,2.58 -1.77,3.76 v 0 l -0.08,0.12 v 0 c -0.63,1.05 -1.38,2.01 -2.25,2.87 -0.27,0.27 -0.56,0.54 -0.86,0.8 v 0 c -0.25,0.21 -0.51,0.42 -0.79,0.62 h -0.03 l -0.42,0.29 v 0 l -0.42,0.26 -0.05,0.03 -0.44,0.25 h -0.04 l -0.42,0.21 -0.06,0.03 c -0.15,0.07 -0.31,0.14 -0.47,0.2 l -0.07,0.03 -0.44,0.16 h -0.06 l -0.51,0.15 -0.1,0.03 c -0.15,0.05 -0.31,0.08 -0.47,0.12 h -0.06 l -0.51,0.1 h -0.12 l -0.51,0.07 h -0.04 c -0.18,0 -0.37,0.04 -0.56,0.05 h -0.72 c -4.48,0 -7.41,-3.85 -7.41,-3.85 h -2.36 l -2.33,7.16 -0.04,0.11 c 3.8,1.84 7.31,2.76 10.53,2.76 3.48,0.05 6.88,-1.06 9.67,-3.15 2.82,-2.1 5.12,-5.17 6.9,-9.21 l 18.16,-41.53 6.14,-2.25 v -2.49 h -19.06 z"
               id="path17-0"
               style="fill:#051c2c;fill-opacity:1;stroke:none;stroke-width:0.9;stroke-linejoin:round;stroke-dasharray:none;stroke-opacity:1" />
            <path
               class="cls-2"
               d="m 168.88,117.34 c -5.02,2.41 -10.92,2.15 -15.71,-0.69 -2.48,-1.53 -4.49,-3.71 -5.83,-6.31 -1.41,-2.75 -2.13,-5.8 -2.09,-8.89 -0.06,-3.02 0.61,-6.01 1.94,-8.72 1.21,-2.43 3.02,-4.51 5.27,-6.04 2.13,-1.47 4.63,-2.34 7.21,-2.51 h 0.42 c 0.8,0 1.6,0.08 2.39,0.24 v 0 l 7.32,8.4 h 2.12 l 4.6,-5.95 c -5.13,-3.78 -10.6,-5.68 -16.41,-5.68 -4.07,-0.08 -8.08,0.98 -11.57,3.07 -3.31,2.01 -6,4.89 -7.77,8.33 -1.87,3.64 -2.82,7.68 -2.76,11.76 -0.05,4 0.87,7.96 2.68,11.53 1.66,3.34 4.2,6.17 7.34,8.18 3.12,1.99 6.75,3.02 10.44,2.98 3.9,0.08 7.72,-1.12 10.88,-3.41 3.11,-2.27 5.67,-5.54 7.67,-9.8 l -2.07,-1.47 c -1.67,2.05 -3.74,3.74 -6.08,4.98 z"
               id="path18-3"
               style="fill:#051c2c;fill-opacity:1;stroke:none;stroke-width:0.9;stroke-linejoin:round;stroke-dasharray:none;stroke-opacity:1" />
          </g>
        </g>
      </g>
    </g>
  </g>
</svg>
